STARTFONT 2.1
COMMENT
COMMENT Converted from OpenType font "London Underground Regular.ttf" by "otf2bdf 3.0".
COMMENT
FONT -FreeType-London Underground-Medium-R-Normal--11-80-100-100-P-68-ISO10646-1
SIZE 8 100 100
FONTBOUNDINGBOX 9 14 0 -3
STARTPROPERTIES 19
FOUNDRY "FreeType"
FAMILY_NAME "London Underground"
WEIGHT_NAME "Medium"
SLANT "R"
SETWIDTH_NAME "Normal"
ADD_STYLE_NAME ""
PIXEL_SIZE 11
POINT_SIZE 80
RESOLUTION_X 100
RESOLUTION_Y 100
SPACING "P"
AVERAGE_WIDTH 68
CHARSET_REGISTRY "ISO10646"
CHARSET_ENCODING "1"
FONT_ASCENT 9
FONT_DESCENT 2
COPYRIGHT "Copyright (c) 2019, Sean Petykowski"
_OTF_FONTFILE "London Underground Regular.ttf"
_OTF_PSNAME "LondonUnderground"
ENDPROPERTIES
CHARS 68
STARTCHAR 0020
ENCODING 32
SWIDTH 540 0
DWIDTH 6 0
BBX 0 0 0 0
BITMAP
ENDCHAR
STARTCHAR 0026
ENCODING 38
SWIDTH 810 0
DWIDTH 9 0
BBX 7 11 0 -1
BITMAP
50
00
88
88
70
00
70
8A
00
84
5A
ENDCHAR
STARTCHAR 0027
ENCODING 39
SWIDTH 360 0
DWIDTH 4 0
BBX 2 5 0 6
BITMAP
C0
00
C0
40
80
ENDCHAR
STARTCHAR 002A
ENCODING 42
SWIDTH 630 0
DWIDTH 7 0
BBX 6 9 0 0
BITMAP
30
94
78
00
FC
78
B4
00
10
ENDCHAR
STARTCHAR 002B
ENCODING 43
SWIDTH 630 0
DWIDTH 7 0
BBX 6 6 0 2
BITMAP
10
10
00
FC
30
30
ENDCHAR
STARTCHAR 002D
ENCODING 45
SWIDTH 630 0
DWIDTH 7 0
BBX 6 1 0 4
BITMAP
FC
ENDCHAR
STARTCHAR 0030
ENCODING 48
SWIDTH 810 0
DWIDTH 9 0
BBX 7 12 0 -1
BITMAP
5C
82
00
82
82
82
00
82
82
00
82
5C
ENDCHAR
STARTCHAR 0031
ENCODING 49
SWIDTH 810 0
DWIDTH 9 0
BBX 2 12 3 -1
BITMAP
40
C0
00
40
40
40
00
40
40
00
40
40
ENDCHAR
STARTCHAR 0032
ENCODING 50
SWIDTH 810 0
DWIDTH 9 0
BBX 7 12 0 -1
BITMAP
5C
82
00
02
02
04
00
08
30
00
40
DE
ENDCHAR
STARTCHAR 0033
ENCODING 51
SWIDTH 810 0
DWIDTH 9 0
BBX 7 12 0 -1
BITMAP
5C
82
00
02
02
3C
00
02
02
00
82
5C
ENDCHAR
STARTCHAR 0034
ENCODING 52
SWIDTH 810 0
DWIDTH 9 0
BBX 7 12 0 -1
BITMAP
04
0C
00
14
44
84
00
FE
04
00
04
04
ENDCHAR
STARTCHAR 0035
ENCODING 53
SWIDTH 810 0
DWIDTH 9 0
BBX 7 12 0 -1
BITMAP
DE
80
00
80
FC
02
00
02
02
00
82
5C
ENDCHAR
STARTCHAR 0036
ENCODING 54
SWIDTH 810 0
DWIDTH 9 0
BBX 7 12 0 -1
BITMAP
5C
82
00
80
FC
82
00
82
82
00
82
5C
ENDCHAR
STARTCHAR 0037
ENCODING 55
SWIDTH 810 0
DWIDTH 9 0
BBX 7 12 0 -1
BITMAP
DE
02
00
02
04
08
00
30
40
00
80
80
ENDCHAR
STARTCHAR 0038
ENCODING 56
SWIDTH 810 0
DWIDTH 9 0
BBX 7 12 0 -1
BITMAP
5C
82
00
82
82
7C
00
82
82
00
82
5C
ENDCHAR
STARTCHAR 0039
ENCODING 57
SWIDTH 810 0
DWIDTH 9 0
BBX 7 12 0 -1
BITMAP
5C
82
00
82
82
7E
00
02
02
00
82
5C
ENDCHAR
STARTCHAR 0041
ENCODING 65
SWIDTH 810 0
DWIDTH 9 0
BBX 7 12 0 -1
BITMAP
5C
82
00
82
82
FE
00
82
82
00
82
82
ENDCHAR
STARTCHAR 0042
ENCODING 66
SWIDTH 810 0
DWIDTH 9 0
BBX 7 12 0 -1
BITMAP
DC
82
00
82
82
FC
00
82
82
00
82
FC
ENDCHAR
STARTCHAR 0043
ENCODING 67
SWIDTH 810 0
DWIDTH 9 0
BBX 7 12 0 -1
BITMAP
5C
82
00
80
80
80
00
80
80
00
82
7C
ENDCHAR
STARTCHAR 0044
ENCODING 68
SWIDTH 810 0
DWIDTH 9 0
BBX 7 12 0 -1
BITMAP
DC
82
00
82
82
82
00
82
82
00
82
FC
ENDCHAR
STARTCHAR 0045
ENCODING 69
SWIDTH 810 0
DWIDTH 9 0
BBX 7 12 0 -1
BITMAP
DE
80
00
80
80
FE
00
80
80
00
80
FE
ENDCHAR
STARTCHAR 0046
ENCODING 70
SWIDTH 810 0
DWIDTH 9 0
BBX 7 12 0 -1
BITMAP
DE
80
00
80
80
FE
00
80
80
00
80
80
ENDCHAR
STARTCHAR 0047
ENCODING 71
SWIDTH 810 0
DWIDTH 9 0
BBX 7 12 0 -1
BITMAP
5C
82
00
80
80
BE
00
82
82
00
82
7C
ENDCHAR
STARTCHAR 0048
ENCODING 72
SWIDTH 810 0
DWIDTH 9 0
BBX 7 12 0 -1
BITMAP
82
82
00
82
82
FE
00
82
82
00
82
82
ENDCHAR
STARTCHAR 0049
ENCODING 73
SWIDTH 450 0
DWIDTH 5 0
BBX 4 12 0 -1
BITMAP
D0
40
00
40
40
40
00
40
40
00
40
F0
ENDCHAR
STARTCHAR 004A
ENCODING 74
SWIDTH 630 0
DWIDTH 7 0
BBX 6 12 0 -1
BITMAP
04
04
00
04
04
04
00
04
84
00
84
58
ENDCHAR
STARTCHAR 004B
ENCODING 75
SWIDTH 810 0
DWIDTH 9 0
BBX 7 12 0 -1
BITMAP
82
84
00
88
B0
C0
00
B0
88
00
84
82
ENDCHAR
STARTCHAR 004C
ENCODING 76
SWIDTH 810 0
DWIDTH 9 0
BBX 7 12 0 -1
BITMAP
80
80
00
80
80
80
00
80
80
00
80
FE
ENDCHAR
STARTCHAR 004D
ENCODING 77
SWIDTH 900 0
DWIDTH 10 0
BBX 9 12 0 -1
BITMAP
8180
C380
0000
9580
8980
8980
0000
8180
8180
0000
8180
8180
ENDCHAR
STARTCHAR 004E
ENCODING 78
SWIDTH 810 0
DWIDTH 9 0
BBX 7 12 0 -1
BITMAP
82
82
00
C2
B2
8A
00
86
82
00
82
82
ENDCHAR
STARTCHAR 004F
ENCODING 79
SWIDTH 810 0
DWIDTH 9 0
BBX 7 12 0 -1
BITMAP
5C
82
00
82
82
82
00
82
82
00
82
7C
ENDCHAR
STARTCHAR 0050
ENCODING 80
SWIDTH 810 0
DWIDTH 9 0
BBX 7 12 0 -1
BITMAP
DC
82
00
82
82
FC
00
80
80
00
80
80
ENDCHAR
STARTCHAR 0051
ENCODING 81
SWIDTH 810 0
DWIDTH 9 0
BBX 7 14 0 -3
BITMAP
5C
00
82
82
00
82
82
82
00
82
8A
5C
00
02
ENDCHAR
STARTCHAR 0052
ENCODING 82
SWIDTH 810 0
DWIDTH 9 0
BBX 7 12 0 -1
BITMAP
DC
82
00
82
82
FC
00
B0
88
00
84
82
ENDCHAR
STARTCHAR 0053
ENCODING 83
SWIDTH 810 0
DWIDTH 9 0
BBX 7 12 0 -1
BITMAP
5C
82
00
80
80
7C
00
02
02
00
82
7C
ENDCHAR
STARTCHAR 0054
ENCODING 84
SWIDTH 900 0
DWIDTH 10 0
BBX 9 12 0 -1
BITMAP
DF80
0800
0000
0800
0800
0800
0000
0800
0800
0000
0800
0800
ENDCHAR
STARTCHAR 0055
ENCODING 85
SWIDTH 810 0
DWIDTH 9 0
BBX 7 12 0 -1
BITMAP
82
82
00
82
82
82
00
82
82
00
82
7C
ENDCHAR
STARTCHAR 0056
ENCODING 86
SWIDTH 900 0
DWIDTH 10 0
BBX 9 12 0 -1
BITMAP
8180
8180
0000
8180
8180
8180
0000
8180
4200
0000
1400
0800
ENDCHAR
STARTCHAR 0057
ENCODING 87
SWIDTH 900 0
DWIDTH 10 0
BBX 9 12 0 -1
BITMAP
8180
8180
0000
8180
8180
8980
0000
8980
8980
0000
9580
4200
ENDCHAR
STARTCHAR 0058
ENCODING 88
SWIDTH 990 0
DWIDTH 11 0
BBX 9 12 0 -1
BITMAP
8180
8180
0000
4200
3400
0800
0000
3400
4200
0000
8180
8180
ENDCHAR
STARTCHAR 0059
ENCODING 89
SWIDTH 900 0
DWIDTH 10 0
BBX 9 12 0 -1
BITMAP
8180
4200
0000
1400
0800
0800
0000
0800
0800
0000
0800
0800
ENDCHAR
STARTCHAR 005A
ENCODING 90
SWIDTH 900 0
DWIDTH 10 0
BBX 9 12 0 -1
BITMAP
DF80
0180
0000
0200
0400
0800
0000
3000
4000
0000
8000
DF80
ENDCHAR
STARTCHAR 0061
ENCODING 97
SWIDTH 630 0
DWIDTH 7 0
BBX 6 8 0 0
BITMAP
58
04
00
7C
84
84
00
5C
ENDCHAR
STARTCHAR 0062
ENCODING 98
SWIDTH 630 0
DWIDTH 7 0
BBX 6 11 0 0
BITMAP
80
00
80
D8
84
00
84
84
84
00
D8
ENDCHAR
STARTCHAR 0063
ENCODING 99
SWIDTH 630 0
DWIDTH 7 0
BBX 6 8 0 0
BITMAP
58
84
00
80
80
84
00
58
ENDCHAR
STARTCHAR 0064
ENCODING 100
SWIDTH 630 0
DWIDTH 7 0
BBX 6 11 0 0
BITMAP
04
00
04
5C
84
00
84
84
84
00
5C
ENDCHAR
STARTCHAR 0065
ENCODING 101
SWIDTH 630 0
DWIDTH 7 0
BBX 6 8 0 0
BITMAP
58
84
00
FC
80
84
00
58
ENDCHAR
STARTCHAR 0066
ENCODING 102
SWIDTH 540 0
DWIDTH 6 0
BBX 5 11 0 0
BITMAP
18
00
40
D0
40
00
40
40
40
00
40
ENDCHAR
STARTCHAR 0067
ENCODING 103
SWIDTH 630 0
DWIDTH 7 0
BBX 6 11 0 -3
BITMAP
58
00
84
84
84
00
84
5C
04
00
58
ENDCHAR
STARTCHAR 0068
ENCODING 104
SWIDTH 630 0
DWIDTH 7 0
BBX 6 11 0 0
BITMAP
80
00
80
D8
84
00
84
84
84
00
84
ENDCHAR
STARTCHAR 0069
ENCODING 105
SWIDTH 180 0
DWIDTH 2 0
BBX 1 11 0 0
BITMAP
80
00
00
80
80
00
80
80
80
00
80
ENDCHAR
STARTCHAR 006A
ENCODING 106
SWIDTH 450 0
DWIDTH 5 0
BBX 4 14 0 -3
BITMAP
10
00
00
10
00
30
30
30
00
10
10
10
00
C0
ENDCHAR
STARTCHAR 006B
ENCODING 107
SWIDTH 630 0
DWIDTH 7 0
BBX 6 11 0 0
BITMAP
80
00
80
88
B0
00
C0
B0
88
00
84
ENDCHAR
STARTCHAR 006C
ENCODING 108
SWIDTH 450 0
DWIDTH 5 0
BBX 4 11 0 0
BITMAP
80
00
80
80
80
00
80
80
80
00
50
ENDCHAR
STARTCHAR 006D
ENCODING 109
SWIDTH 900 0
DWIDTH 10 0
BBX 9 8 0 0
BITMAP
D600
8980
0000
8980
8980
8980
0000
8980
ENDCHAR
STARTCHAR 006E
ENCODING 110
SWIDTH 630 0
DWIDTH 7 0
BBX 6 8 0 0
BITMAP
D8
84
00
84
84
84
00
84
ENDCHAR
STARTCHAR 006F
ENCODING 111
SWIDTH 630 0
DWIDTH 7 0
BBX 6 8 0 0
BITMAP
58
84
00
84
84
84
00
58
ENDCHAR
STARTCHAR 0070
ENCODING 112
SWIDTH 630 0
DWIDTH 7 0
BBX 6 11 0 -3
BITMAP
D8
00
84
84
84
00
84
D8
80
00
80
ENDCHAR
STARTCHAR 0071
ENCODING 113
SWIDTH 630 0
DWIDTH 7 0
BBX 6 11 0 -3
BITMAP
5C
00
84
84
84
00
84
5C
04
00
04
ENDCHAR
STARTCHAR 0072
ENCODING 114
SWIDTH 540 0
DWIDTH 6 0
BBX 5 8 0 0
BITMAP
98
C0
00
80
80
80
00
80
ENDCHAR
STARTCHAR 0073
ENCODING 115
SWIDTH 630 0
DWIDTH 7 0
BBX 6 8 0 0
BITMAP
58
80
00
78
04
84
00
58
ENDCHAR
STARTCHAR 0074
ENCODING 116
SWIDTH 540 0
DWIDTH 6 0
BBX 5 11 0 0
BITMAP
40
00
40
D8
40
00
40
40
40
00
18
ENDCHAR
STARTCHAR 0075
ENCODING 117
SWIDTH 630 0
DWIDTH 7 0
BBX 6 8 0 0
BITMAP
84
84
00
84
84
84
00
5C
ENDCHAR
STARTCHAR 0076
ENCODING 118
SWIDTH 630 0
DWIDTH 7 0
BBX 6 8 0 0
BITMAP
84
84
00
84
84
48
00
10
ENDCHAR
STARTCHAR 0077
ENCODING 119
SWIDTH 900 0
DWIDTH 10 0
BBX 9 8 0 0
BITMAP
8180
8180
0000
8180
8980
B580
0000
4200
ENDCHAR
STARTCHAR 0078
ENCODING 120
SWIDTH 630 0
DWIDTH 7 0
BBX 6 8 0 0
BITMAP
84
48
00
30
30
48
00
84
ENDCHAR
STARTCHAR 0079
ENCODING 121
SWIDTH 630 0
DWIDTH 7 0
BBX 6 11 0 -3
BITMAP
84
00
84
84
84
00
84
5C
04
00
D8
ENDCHAR
STARTCHAR 007A
ENCODING 122
SWIDTH 630 0
DWIDTH 7 0
BBX 6 8 0 0
BITMAP
DC
08
00
30
30
40
00
DC
ENDCHAR
ENDFONT
